<svg xmlns="http://www.w3.org/2000/svg">
<!-- Divider brush-stroke: vệt cọ khô thon hai đầu, khe xước bằng evenodd. Tô currentColor, CSS nên đặt opacity .75. Tự vẽ (ui-ux-designer v4a-1). -->
<symbol id="divider" viewBox="0 0 160 24"><path d="M14 11.72L18.71 10.48L23.43 10.2L28.14 9.88L32.86 9.25L37.57 9.06L42.29 9.11L47 9L51.71 9.44L56.43 8.2L61.14 8.53L65.86 8.35L70.57 7.58L75.29 8.54L80 7.89L84.71 8.36L89.43 7.04L94.14 7.13L98.86 7.18L103.57 6.99L108.29 6.71L113 7.83L117.71 7.62L122.43 7.63L127.14 8.07L131.86 9.07L136.57 10.35L141.29 10.38L146 10.42L146 11.04L141.29 11L136.57 10.89L131.86 12.17L127.14 12.92L122.43 13.69L117.71 13.79L113 14.35L108.29 15.14L103.57 15.96L98.86 16.4L94.14 16.41L89.43 17.45L84.71 17.36L80 16.96L75.29 18.31L70.57 18.46L65.86 17.73L61.14 17.63L56.43 18.54L51.71 18.43L47 17.06L42.29 17.66L37.57 16.8L32.86 16.76L28.14 15.31L23.43 14.57L18.71 13.85L14 12.26ZM70 11.2Q94 10.6 118 11.4Q94 11.4 70 11.2ZM96 13.4Q118 12.8 140 13.6Q118 13.6 96 13.4ZM40 12.6Q57 12 74 12.8Q57 12.8 40 12.6Z" fill="currentColor" fill-rule="evenodd"/></symbol>
</svg>
