<svg xmlns="http://www.w3.org/2000/svg"><symbol id="divider" viewBox="0 0 160 24"><g fill="none" stroke="currentColor" stroke-linecap="round" stroke-linejoin="round"><path d="m80 21-9.4-4.92a2.08 2.08 0 0 1 2.13-3.44 2.08 2.08 0 0 1 3.31-2.32A2.08 2.08 0 0 1 80 9.5a2.08 2.08 0 0 1 3.96.82 2.08 2.08 0 0 1 3.31 2.32 2.08 2.08 0 0 1 2.13 3.44Z" pathLength="100"/><path d="m80 21-6.76-7.88M80 21l-3.68-10.04M80 21V10.2M80 21l3.68-10.04M80 21l6.76-7.88" opacity=".7" pathLength="100"/><path d="M76.5 22h7" pathLength="100"/><path d="M93 10.5q3.75-2.6 7.5 0t7.5 0 7.5 0 7.5 0 7.5 0 7.5 0 7.5 0" pathLength="100"/><path d="M93 15q3.75-2.6 7.5 0t7.5 0 7.5 0 7.5 0 7.5 0 7.5 0 7.5 0" opacity=".5" pathLength="100"/><g><path d="M67 10.5q-3.75-2.6-7.5 0t-7.5 0-7.5 0-7.5 0-7.5 0-7.5 0-7.5 0" pathLength="100"/><path d="M67 15q-3.75-2.6-7.5 0T52 15t-7.5 0-7.5 0-7.5 0-7.5 0-7.5 0" opacity=".5" pathLength="100"/></g></g><g fill="currentColor"><circle cx="150" cy="15" r="1.1" pathLength="100"/><circle cx="10" cy="15" r="1.1" pathLength="100"/></g></symbol><symbol id="title" viewBox="0 0 80 16"><g fill="none" stroke="currentColor" stroke-linecap="round" stroke-linejoin="round"><path d="m40 14.5-5.64-2.95a1.25 1.25 0 0 1 1.28-2.07 1.25 1.25 0 0 1 1.98-1.39A1.25 1.25 0 0 1 40 7.6a1.25 1.25 0 0 1 2.38.49 1.25 1.25 0 0 1 1.98 1.39 1.25 1.25 0 0 1 1.28 2.07Z" pathLength="100"/><path d="m40 14.5-4.06-4.73M40 14.5l-2.21-6.02M40 14.5V8.02m0 6.48 2.21-6.02M40 14.5l4.06-4.73" opacity=".7" pathLength="100"/><path d="M37.9 15.1h4.2" pathLength="100"/><path d="M6 12h26m16 0h26" pathLength="100"/></g></symbol><symbol id="corner" viewBox="0 0 96 96"><g fill="none" stroke="currentColor" stroke-linecap="round" stroke-linejoin="round"><path d="M5 91V5h86" opacity=".4" pathLength="100"/><path d="M8 8q36 8 76 32" pathLength="100"/><path d="M16.7 10.15q3.47-2.41 7.08-2.97m-7.08 2.97q1.77 3.84 4.6 6.15m2.24-4.16q4.3-2.77 8.7-3.3m-8.7 3.3q1.98 4.72 5.31 7.64m1.61-5.37q4.91-2.94 9.85-3.37m-9.85 3.37q2.04 5.35 5.65 8.74m1.33-6.19q5.27-2.92 10.47-3.21m-10.47 3.21q1.97 5.69 5.65 9.38m1.4-6.55q5.33-2.75 10.51-2.87m-10.51 2.87q1.78 5.72 5.33 9.5m1.8-6.4q5.07-2.43 9.95-2.41m-9.95 2.41q1.51 5.43 4.74 9.07m2.45-5.68q4.53-2.02 8.82-1.88m-8.82 1.88q1.2 4.81 3.95 8.1m3.31-4.44q3.72-1.53 7.19-1.33m-7.19 1.33q.87 3.93 3.03 6.65m4.3-2.71q2.67-1.02 5.14-.81m-5.14.81q.55 2.81 2.04 4.79m5.37-.56q1.45-.52 2.77-.38m-2.77.38q.25 1.52 1.03 2.6" pathLength="100"/><path d="M8 8q10 36 32 76" pathLength="100"/><path d="M10.57 16.7q3.55 1.47 5.75 3.96m-5.75-3.96q-2.07 3.23-2.45 6.53m4.99 1.17q4.42 1.7 7.22 4.69m-7.22-4.69q-2.44 4.06-2.81 8.14m5.61-.34q4.99 1.76 8.21 5.03m-8.21-5.03q-2.61 4.61-2.9 9.19m5.96-1.31q5.23 1.7 8.66 5m-8.66-5q-2.58 4.85-2.76 9.61m6.09-1.64q5.09 1.52 8.49 4.63m-8.49-4.63q-2.39 4.75-2.45 9.35m6.04-1.3q4.6 1.26 7.71 3.98m-7.71-3.98q-2.04 4.32-1.99 8.44m5.85-.29q3.77.94 6.35 3.1m-6.35-3.1q-1.58 3.55-1.47 6.92m5.59 1.31q2.67.61 4.52 2.09m-4.52-2.09q-1.06 2.53-.93 4.9m5.32 3.43q1.37.28 2.33 1.02m-2.33-1.02q-.52 1.3-.43 2.51" pathLength="100"/><path d="m52 66-7.52-3.94a1.67 1.67 0 0 1 1.7-2.75 1.67 1.67 0 0 1 2.65-1.86A1.67 1.67 0 0 1 52 56.8a1.67 1.67 0 0 1 3.17.65 1.67 1.67 0 0 1 2.65 1.86 1.67 1.67 0 0 1 1.7 2.75Z" pathLength="100"/><path d="m52 66-5.41-6.31M52 66l-2.95-8.03M52 66v-8.64M52 66l2.95-8.03M52 66l5.41-6.31" opacity=".7" pathLength="100"/><path d="M49.2 66.8h5.6" pathLength="100"/><path d="M66 84q4-2.6 8 0t8 0 8 0" pathLength="100"/></g></symbol><symbol id="amp" viewBox="0 0 120 24"><g fill="none" stroke="currentColor" stroke-linecap="round" stroke-linejoin="round"><path d="M8 12q4-2.6 8 0t8 0 8 0 8 0" pathLength="100"/><g><path d="M112 12q-4-2.6-8 0t-8 0-8 0-8 0" pathLength="100"/></g></g></symbol><symbol id="monogram" viewBox="0 0 120 120"><g fill="none" stroke="currentColor" stroke-linecap="round" stroke-linejoin="round"><path d="M71 11a50 50 0 1 1-22 0" pathLength="100"/><path d="M70 17.3a44 44 0 1 1-20 0" opacity=".45" pathLength="100"/><path d="m60 17-9.4-4.92a2.08 2.08 0 0 1 2.13-3.44 2.08 2.08 0 0 1 3.31-2.32A2.08 2.08 0 0 1 60 5.5a2.08 2.08 0 0 1 3.96.82 2.08 2.08 0 0 1 3.31 2.32 2.08 2.08 0 0 1 2.13 3.44Z" pathLength="100"/><path d="m60 17-6.76-7.88M60 17 56.32 6.96M60 17V6.2M60 17l3.68-10.04M60 17l6.76-7.88" opacity=".7" pathLength="100"/><path d="M56.5 18h7" pathLength="100"/><path d="M60 112q-30-4-44-32" pathLength="100"/><path d="M53.03 110.69q-2.48 1.82-5.09 2.3m5.09-2.3q-1.36-2.75-3.46-4.38m-3.05 2.39q-3.36 1.91-6.71 2.12m6.71-2.12q-1.29-3.65-3.68-6m-2.37 3.31q-3.99 1.65-7.71 1.42m7.71-1.42q-.93-4.22-3.25-7.14m-2.33 3.76q-4.23 1.15-7.95.44m7.95-.44q-.4-4.36-2.35-7.6m-2.78 3.53q-4 .56-7.32-.52m7.32.52q.14-4.04-1.27-7.23m-3.4 2.47q-3.33.05-5.95-1.16m5.95 1.16q.53-3.3-.31-6.06m-3.89.61q-2.32-.23-4.05-1.29m4.05 1.29q.63-2.25.26-4.24m-4-1.91q-1.1-.22-1.87-.81m1.87.81q.41-1.04.33-2.01" pathLength="100"/><path d="M60 112q30-4 44-32" pathLength="100"/><path d="M66.97 110.69q1.36-2.75 3.46-4.38m-3.46 4.38q2.48 1.82 5.09 2.3m1.42-4.29q1.29-3.65 3.68-6m-3.68 6q3.36 1.91 6.71 2.12m-.66-4.81q.93-4.22 3.25-7.14m-3.25 7.14q3.99 1.65 7.71 1.42m-2.13-4.8q.4-4.36 2.35-7.6m-2.35 7.6q4.23 1.15 7.95.44m-2.82-4.51q-.14-4.04 1.27-7.23m-1.27 7.23q4 .56 7.32-.52m-2.65-4.24q-.53-3.3.31-6.06m-.31 6.06q3.33.05 5.95-1.16m-1.75-4.29q-.63-2.25-.26-4.24m.26 4.24q2.32-.23 4.05-1.29m-.31-4.86q-.41-1.04-.33-2.01m.33 2.01q1.1-.22 1.87-.81" pathLength="100"/></g></symbol><symbol id="gift" viewBox="0 0 64 64"><g fill="none" stroke="currentColor" stroke-linecap="round" stroke-linejoin="round"><path stroke-width="1.2" d="M12 30h40v26H12zm-4-8h48v8H8zm24 8v26" pathLength="100"/><path d="M32 20c1.6-4.4 6-6.4 8-2.8-.4 2.4-4.4 3.6-8 2.8" pathLength="100"/><path d="M32 20c4.68.16 7.94 3.73 5.14 6.74-2.41.36-4.79-3.07-5.14-6.74" pathLength="100"/><path d="M32 20c1.3 4.5-1.1 8.7-4.83 6.97-1.08-2.18 1.45-5.5 4.83-6.97" pathLength="100"/><path d="M32 20c-3.88 2.62-8.62 1.65-8.12-2.44 1.74-1.7 5.68-.32 8.12 2.44" pathLength="100"/><path d="M32 20c-3.69-2.88-4.23-7.68-.2-8.47 2.17 1.12 2.07 5.3.2 8.47" pathLength="100"/><circle cx="32" cy="20" r="1.2" pathLength="100"/><path d="M15 47q3.5-2.2 7 0t7 0" pathLength="100"/><path d="M37 47q3.5-2.2 7 0t7 0" pathLength="100"/></g></symbol></svg>