<svg xmlns="http://www.w3.org/2000/svg"><symbol id="divider" viewBox="0 0 160 24"><g fill="none" stroke="currentColor" stroke-linecap="round" stroke-linejoin="round"><path d="M80 19.5c4-4 4-10 0-14-4 4-4 10 0 14" pathLength="100"/><path d="M80 19.5c-3-3-7-7-9-11-.5 5 3 9.5 9 11" pathLength="100"/><path d="M80 19.5c-6-.5-11-3-13-6.5 4-.5 9 2 13 6.5" pathLength="100"/><path d="M80 19.5c3-3 7-7 9-11 .5 5-3 9.5-9 11" pathLength="100"/><path d="M80 19.5c6-.5 11-3 13-6.5-4-.5-9 2-13 6.5" pathLength="100"/><path d="M8 19.5h54" pathLength="100"/><path d="M26 16.5q4-2.6 8 0m6 0q4-2.6 8 0m-34 6q3-2 6 0" opacity=".5" pathLength="100"/><g><path d="M152 19.5H98" pathLength="100"/><path d="M134 16.5q-4-2.6-8 0m-6 0q-4-2.6-8 0m34 6q-3-2-6 0" opacity=".5" pathLength="100"/></g></g></symbol></svg>