<svg xmlns="http://www.w3.org/2000/svg" viewBox="0 0 240 40" width="240" height="40">
<!-- B2 motif dong-son/band - ui-ux-designer v4a-1. Tự vẽ. -->
<g fill="none" stroke="currentColor" stroke-width="1.4" stroke-linecap="round" stroke-linejoin="round"><path d="M0 2H240M0 26.5H240M0 38.5H240M6 14a6 6 0 1 0 12 0a6 6 0 1 0 -12 0M16 9.5L32 18.5M30 14a6 6 0 1 0 12 0a6 6 0 1 0 -12 0M40 9.5L56 18.5M54 14a6 6 0 1 0 12 0a6 6 0 1 0 -12 0M64 9.5L80 18.5M78 14a6 6 0 1 0 12 0a6 6 0 1 0 -12 0M88 9.5L104 18.5M102 14a6 6 0 1 0 12 0a6 6 0 1 0 -12 0M112 9.5L128 18.5M126 14a6 6 0 1 0 12 0a6 6 0 1 0 -12 0M136 9.5L152 18.5M150 14a6 6 0 1 0 12 0a6 6 0 1 0 -12 0M160 9.5L176 18.5M174 14a6 6 0 1 0 12 0a6 6 0 1 0 -12 0M184 9.5L200 18.5M198 14a6 6 0 1 0 12 0a6 6 0 1 0 -12 0M208 9.5L224 18.5M222 14a6 6 0 1 0 12 0a6 6 0 1 0 -12 0M232 9.5L248 18.5M0 30L6 24L12 30L18 24L24 30L30 24L36 30L42 24L48 30L54 24L60 30L66 24L72 30L78 24L84 30L90 24L96 30L102 24L108 30L114 24L120 30L126 24L132 30L138 24L144 30L150 24L156 30L162 24L168 30L174 24L180 30L186 24L192 30L198 24L204 30L210 24L216 30L222 24L228 30L234 24L240 30M3 34v5M9 34v5M15 34v5M21 34v5M27 34v5M33 34v5M39 34v5M45 34v5M51 34v5M57 34v5M63 34v5M69 34v5M75 34v5M81 34v5M87 34v5M93 34v5M99 34v5M105 34v5M111 34v5M117 34v5M123 34v5M129 34v5M135 34v5M141 34v5M147 34v5M153 34v5M159 34v5M165 34v5M171 34v5M177 34v5M183 34v5M189 34v5M195 34v5M201 34v5M207 34v5M213 34v5M219 34v5M225 34v5M231 34v5M237 34v5"/><path d="M10.3 14a1.7 1.7 0 1 0 3.4 0a1.7 1.7 0 1 0 -3.4 0M34.3 14a1.7 1.7 0 1 0 3.4 0a1.7 1.7 0 1 0 -3.4 0M58.3 14a1.7 1.7 0 1 0 3.4 0a1.7 1.7 0 1 0 -3.4 0M82.3 14a1.7 1.7 0 1 0 3.4 0a1.7 1.7 0 1 0 -3.4 0M106.3 14a1.7 1.7 0 1 0 3.4 0a1.7 1.7 0 1 0 -3.4 0M130.3 14a1.7 1.7 0 1 0 3.4 0a1.7 1.7 0 1 0 -3.4 0M154.3 14a1.7 1.7 0 1 0 3.4 0a1.7 1.7 0 1 0 -3.4 0M178.3 14a1.7 1.7 0 1 0 3.4 0a1.7 1.7 0 1 0 -3.4 0M202.3 14a1.7 1.7 0 1 0 3.4 0a1.7 1.7 0 1 0 -3.4 0M226.3 14a1.7 1.7 0 1 0 3.4 0a1.7 1.7 0 1 0 -3.4 0" fill="currentColor" stroke="none"/></g>
</svg>
